# xmcd CD database file
#
# Track frame offsets:
#	150
#	15373
#	29584
#	42981
#	60417
#	73935
#	88775
#	104235
#	117213
#	137688
#	149060
#	162819
#	185739
#	201528
#	215659
#
# Disc length: 3077 seconds
#
# Revision: 0
# Processed by: cddbd v1.5.2PL0 Copyright (c) Steve Scherf et al.
# Submitted via: CDex 1.76
#
DISCID=ee0c030f
DTITLE=C. "Buzz" Buzzard - Meditations, Native American Flute
DYEAR=2008
DGENRE=New Age
TTITLE0=Sun Rise Call
TTITLE1=Cherokee Morning Song
TTITLE2=Midday Serenade
TTITLE3=October Skies
TTITLE4=I Love You
TTITLE5=Ceremonial
TTITLE6=Dreams
TTITLE7=Celebration
TTITLE8=Kiowa Love Song
TTITLE9=Hush Little Baby
TTITLE10=Spirit Flowers
TTITLE11=Basket Weavers
TTITLE12=Melody
TTITLE13=Dancing Moon
TTITLE14=Summer Sunset
EXTD=YEAR: 2008
EXTT0=
EXTT1=
EXTT2=
EXTT3=
EXTT4=
EXTT5=
EXTT6=
EXTT7=
EXTT8=
EXTT9=
EXTT10=
EXTT11=
EXTT12=
EXTT13=
EXTT14=
PLAYORDER=
